<?xml version="1.0" standalone="no"?>
<!DOCTYPE svg PUBLIC "-//W3C//DTD SVG 20010904//EN"
 "http://www.w3.org/TR/2001/REC-SVG-20010904/DTD/svg10.dtd">
<svg version="1.0" xmlns="http://www.w3.org/2000/svg"
 width="1200.000000pt" height="1200.000000pt" viewBox="0 0 1200.000000 1200.000000"
 preserveAspectRatio="xMidYMid meet">

<g transform="translate(0.000000,1200.000000) scale(0.100000,-0.100000)"
fill="#000000" stroke="none">
<path d="M5774 11933 c-2234 -620 -3535 -1443 -4808 -3041 -322 -404 -827
-1112 -846 -1187 -13 -46 -30 -594 -30 -922 0 -2036 450 -3440 1650 -5153 124
-176 402 -550 547 -735 l78 -99 100 -38 c1172 -446 2077 -667 3020 -739 196
-15 746 -15 950 0 881 65 1786 271 2860 651 127 45 256 91 289 102 57 20 61
24 196 194 1353 1701 1930 3038 2084 4834 40 459 56 1162 38 1653 l-9 268
-118 177 c-858 1291 -1628 2114 -2565 2739 -790 526 -1722 929 -3021 1306
l-185 54 -230 -64z m410 -2068 c226 -171 266 -224 266 -352 0 -43 -32 -399
-70 -790 -39 -392 -70 -735 -70 -763 0 -52 25 -90 60 -90 26 0 58 28 64 58 3
15 44 414 91 887 47 473 88 870 91 883 l7 23 26 -24 c14 -13 76 -59 136 -103
199 -142 255 -221 255 -355 0 -42 -5 -101 -10 -130 -58 -301 -270 -1496 -270
-1519 0 -32 30 -70 56 -70 23 0 52 18 63 38 5 10 71 358 146 773 82 456 143
768 154 789 19 39 106 102 162 119 114 34 245 -10 455 -153 33 -22 35 -26 18
-31 -10 -3 -47 -20 -82 -37 -104 -51 -165 -142 -217 -323 -14 -50 -144 -670
-290 -1380 -146 -709 -270 -1312 -276 -1338 l-11 -48 -101 107 c-111 117 -215
204 -343 290 l-84 56 0 229 c0 209 2 235 22 292 16 47 21 87 22 162 1 165 -38
255 -216 506 -118 166 -161 246 -187 353 -35 141 -66 139 -100 -6 -26 -112
-69 -196 -169 -333 -109 -149 -168 -248 -199 -336 -34 -97 -37 -251 -6 -344
18 -55 19 -81 15 -293 l-4 -233 -81 -54 c-156 -104 -306 -237 -410 -364 -15
-18 -29 -32 -31 -30 -2 2 -124 591 -270 1309 -147 718 -281 1357 -297 1420
-38 146 -86 245 -150 305 -49 46 -118 84 -151 85 -10 0 -18 3 -18 8 0 12 169
118 245 154 62 29 79 33 155 33 69 0 93 -5 127 -23 65 -34 110 -79 127 -125 9
-23 74 -370 146 -772 72 -401 135 -740 140 -752 5 -12 21 -30 36 -39 23 -16
29 -16 52 -3 14 8 29 26 33 40 4 17 -45 309 -138 820 -158 876 -159 881 -110
981 34 69 103 135 264 251 l131 95 6 -41 c4 -23 44 -426 91 -896 88 -888 88
-891 135 -906 27 -9 68 18 76 50 3 13 -29 376 -71 806 -49 505 -74 799 -70
828 14 94 60 147 281 318 72 56 138 113 148 128 l18 27 34 -40 c18 -22 85 -79
148 -127z m-30 -2345 c36 -52 88 -137 113 -187 40 -81 47 -103 51 -171 5 -83
-11 -160 -49 -233 -10 -21 -62 -95 -115 -166 -53 -70 -108 -149 -122 -174
l-26 -46 -46 71 c-26 39 -82 118 -126 176 -44 58 -93 134 -109 170 -27 59 -30
75 -30 170 0 141 19 185 186 425 41 61 86 129 99 152 l23 42 42 -67 c23 -37
72 -110 109 -162z m-4280 -542 c-3 -18 -33 -168 -66 -333 -84 -417 -88 -556
-18 -700 44 -92 90 -139 178 -182 l76 -38 140 0 c178 0 232 14 536 137 428
173 762 294 863 313 42 8 165 -23 238 -61 105 -53 173 -151 187 -268 18 -144
-13 -308 -134 -724 -77 -264 -126 -466 -150 -617 -24 -146 -24 -415 -1 -541
94 -509 460 -842 1082 -984 55 -12 107 -25 115 -27 20 -6 -106 -53 -305 -113
-293 -89 -572 -150 -853 -187 -181 -24 -532 -23 -667 1 -252 45 -435 140 -542
281 -44 58 -84 128 -97 172 -7 21 -6 21 41 7 102 -31 239 -47 414 -48 161 -1
179 1 198 18 13 12 21 31 21 51 0 58 -13 62 -240 68 -220 6 -304 20 -450 73
-89 32 -160 84 -258 189 -70 75 -141 196 -158 269 -6 26 -5 28 12 21 99 -41
258 -64 484 -72 170 -5 176 -5 203 16 18 15 27 32 27 50 0 54 -16 58 -235 64
-160 4 -217 9 -285 26 -278 71 -477 266 -488 480 -4 60 -2 73 9 68 158 -69
272 -99 478 -128 165 -23 214 -21 252 10 20 16 22 22 12 44 -19 41 -58 54
-228 76 -300 38 -421 85 -546 210 -114 115 -188 275 -205 448 l-7 63 94 -45
c149 -70 517 -165 642 -165 55 0 89 23 85 57 -5 45 -44 62 -193 88 -444 78
-666 198 -774 416 -130 265 -58 543 309 1184 72 127 147 260 167 298 19 37 37
67 39 67 2 0 1 -15 -2 -32z m8546 -473 c158 -280 245 -489 275 -659 28 -161
13 -275 -52 -398 -103 -197 -321 -319 -693 -388 -63 -12 -138 -26 -167 -31
-91 -18 -133 -77 -81 -113 31 -22 88 -20 239 10 184 35 357 87 466 139 105 49
100 53 83 -55 -27 -167 -93 -304 -200 -411 -122 -124 -246 -172 -540 -209
-180 -24 -188 -25 -217 -53 -28 -25 -29 -48 -4 -71 29 -27 79 -29 218 -12 171
22 324 57 428 99 47 19 87 32 90 29 10 -10 5 -78 -10 -136 -22 -82 -58 -141
-139 -221 -154 -153 -347 -215 -668 -215 -145 0 -160 -2 -178 -20 -27 -27 -25
-56 6 -87 l26 -26 187 6 c189 6 330 25 435 57 l58 19 -6 -32 c-19 -98 -133
-264 -243 -351 -32 -26 -66 -53 -75 -61 -24 -20 -150 -64 -248 -86 -64 -15
-137 -22 -290 -26 -227 -6 -240 -10 -240 -68 0 -20 8 -39 21 -51 19 -17 37
-19 198 -18 175 1 311 17 414 48 47 14 48 14 41 -7 -13 -44 -53 -114 -98 -173
-105 -140 -288 -235 -541 -280 -135 -24 -486 -25 -667 -1 -307 41 -626 115
-961 224 -141 45 -203 70 -190 74 10 4 76 21 146 38 518 126 860 394 996 783
52 151 65 241 66 453 0 272 -25 404 -165 891 -122 422 -134 479 -135 634 0
118 3 142 23 191 45 112 161 194 317 226 l80 16 210 -71 c116 -39 352 -127
525 -197 455 -183 516 -200 698 -193 142 6 206 31 282 107 95 95 130 197 130
375 0 95 -9 152 -65 432 -36 178 -65 333 -65 346 0 13 43 -54 104 -162 56
-102 136 -243 176 -315z m-4621 65 c56 -71 106 -171 131 -262 31 -115 85 -146
124 -70 7 15 23 58 35 96 12 38 32 88 43 110 25 50 120 186 131 186 4 0 7 -83
7 -184 0 -304 28 -481 103 -655 71 -162 156 -285 374 -537 255 -294 346 -438
397 -629 16 -63 28 -89 37 -87 8 2 41 20 74 40 210 126 340 285 392 482 29
108 23 258 -21 515 -56 331 -51 460 24 562 71 97 270 144 449 107 23 -5 20 -8
-25 -33 -27 -16 -71 -52 -97 -80 -81 -87 -117 -194 -117 -349 0 -158 28 -291
155 -734 118 -410 155 -609 155 -826 0 -636 -369 -1001 -1156 -1147 l-122 -22
-98 -87 c-153 -137 -326 -252 -542 -360 -198 -100 -270 -114 -385 -75 -154 51
-467 259 -660 438 -47 44 -97 83 -109 86 -13 2 -91 18 -174 35 -359 71 -624
193 -802 372 -296 295 -361 712 -207 1318 15 58 55 204 90 325 117 404 139
513 138 685 -1 207 -64 329 -221 426 -22 14 -31 24 -23 28 6 4 64 8 129 8 201
0 300 -47 358 -174 27 -59 29 -70 28 -188 -1 -94 -9 -174 -34 -320 -27 -158
-34 -222 -34 -335 0 -125 3 -149 27 -220 48 -146 130 -258 258 -354 83 -63
199 -135 206 -128 2 3 15 47 29 98 50 190 137 327 393 623 287 330 388 502
442 750 22 98 38 321 39 516 0 69 4 120 9 115 4 -6 27 -35 50 -65z m-224 -506
c-30 -160 -98 -312 -207 -466 -25 -35 -103 -130 -174 -212 -127 -146 -253
-299 -286 -347 -17 -23 -17 -23 -12 41 36 463 226 803 612 1092 l77 58 3 -40
c2 -22 -4 -79 -13 -126z m1024 31 c243 -202 407 -460 476 -747 22 -91 51 -315
43 -324 -2 -1 -31 34 -65 79 -34 45 -121 150 -193 232 -223 255 -310 382 -371
539 -36 93 -69 239 -69 309 l0 48 46 -32 c26 -17 85 -64 133 -104z m692 -3580
c97 -17 186 -46 315 -103 258 -114 672 -241 789 -242 22 0 46 -4 54 -9 7 -5
30 -84 52 -179 21 -94 50 -206 64 -249 14 -43 25 -84 25 -90 0 -30 -209 0
-367 53 -59 20 -213 82 -343 139 -421 184 -486 199 -804 192 -182 -4 -245 -9
-356 -30 -221 -43 -405 -101 -623 -198 -60 -27 -111 -49 -113 -49 -3 0 -3 113
-2 251 l3 251 70 18 c39 10 122 41 184 69 127 57 213 84 416 130 276 62 468
76 636 46z m-2087 -20 c150 -22 391 -81 450 -109 28 -14 80 -43 116 -66 35
-22 81 -45 102 -51 l38 -10 0 -244 0 -244 -67 30 c-202 91 -433 164 -633 199
-93 17 -180 24 -341 27 -316 8 -385 -10 -779 -197 -230 -109 -289 -133 -405
-161 -94 -22 -255 -27 -255 -6 0 6 11 46 24 87 13 41 41 150 61 241 l38 166
116 6 c217 11 494 88 756 210 233 109 338 135 549 136 71 1 174 -6 230 -14z
m-78 -560 c237 -35 456 -101 710 -216 l130 -59 106 49 c147 69 353 144 478
175 344 84 679 94 905 27 98 -29 155 -52 460 -184 269 -116 461 -167 630 -167
l83 0 27 -46 c15 -26 43 -63 61 -84 24 -26 32 -43 28 -55 -7 -16 -18 -17 -119
-12 -204 11 -383 59 -680 182 -422 175 -483 196 -685 231 -125 22 -338 22
-450 1 -88 -17 -216 -58 -453 -146 -76 -28 -184 -60 -239 -71 -153 -32 -216
-19 -571 111 -304 112 -463 140 -675 120 -233 -23 -363 -61 -717 -211 -381
-161 -563 -212 -770 -214 -129 -1 -140 9 -82 73 19 21 46 60 61 88 l28 51 136
5 c202 7 294 35 635 198 208 99 358 154 463 168 93 13 366 5 500 -14z"/>
<path d="M5994 6160 c-12 -5 -34 -24 -48 -43 -39 -51 -115 -268 -164 -467 -8
-33 -10 -35 -44 -32 -73 7 -106 -38 -131 -174 -23 -120 -64 -215 -176 -408
-149 -255 -198 -387 -221 -596 -25 -224 30 -430 158 -593 58 -74 163 -153 279
-211 50 -25 96 -46 101 -46 4 0 27 16 50 35 95 82 213 102 310 54 47 -23 53
-24 69 -10 16 15 16 15 3 -2 -11 -15 -10 -21 10 -42 39 -41 53 -40 159 15 175
92 281 196 352 345 53 111 70 181 76 320 6 140 -10 251 -57 395 -44 134 -100
243 -260 505 -214 350 -256 449 -310 736 -31 164 -46 204 -83 214 -44 13 -52
13 -73 5z m73 -535 c14 -44 41 -113 59 -154 36 -78 48 -98 217 -376 219 -358
277 -516 277 -752 0 -171 -37 -284 -129 -400 -39 -50 -132 -123 -198 -157 -31
-16 -33 -15 -78 13 -69 44 -158 65 -255 59 -70 -4 -92 -10 -160 -45 l-78 -40
-58 31 c-32 17 -89 60 -127 95 -147 139 -205 349 -162 594 24 140 74 262 189
460 113 196 136 244 172 352 12 39 23 62 23 53 1 -11 9 -18 20 -18 21 0 53
-69 121 -260 91 -254 92 -387 5 -774 -14 -60 -23 -111 -21 -113 7 -7 109 236
147 347 79 240 69 343 -71 695 -34 86 -48 135 -49 175 -2 87 28 243 76 395
l16 50 19 -75 c10 -41 30 -111 45 -155z"/>
<path d="M5887 3606 c-53 -19 -74 -41 -91 -95 -18 -55 -36 -173 -36 -233 0
-34 -9 -56 -41 -103 -57 -85 -89 -150 -89 -182 0 -97 182 -295 312 -338 38
-13 55 -14 90 -5 116 31 290 195 319 302 13 49 5 72 -64 181 l-49 78 -4 112
c-7 211 -31 264 -132 286 -70 15 -168 13 -215 -3z m198 -90 c53 -22 67 -62 73
-201 5 -115 6 -122 43 -193 45 -84 50 -132 20 -191 -53 -103 -163 -201 -226
-201 -86 0 -245 187 -245 287 0 25 14 66 41 118 35 69 42 93 50 174 14 144 29
188 73 207 41 18 128 18 171 0z"/>
</g>
</svg>
